# xmcd
#
# Track frame offsets: 
#        150
#        12311
#        27935
#        43321
#        68450
#        76622
#        96179
#        111264
#        131167
#        146432
#        161826
#
# Disc length: 2402 seconds
#
# Revision: 0
# Processed by: cddbd v1.5.1PL2 Copyright (c) Steve Scherf et al.
# Submitted via: ExactAudioCopy v0.90b4
#
DISCID=8d09600b
DTITLE=Various Artist - Red Hat Summit 2006 Soundtrack
DYEAR=2006
DGENRE=Country
TTITLE0=John Kromer - High Time for Getting Down
TTITLE1=The Coal Men - Outside Lookin' In
TTITLE2=Kristen Cothron - Last Chance Girl
TTITLE3=The Cry Room - Come Back Now
TTITLE4=Adam McIntyre - Liquid Girlfriend
TTITLE5=Caitlan Evanson - Saying That I Love You
TTITLE6=Matthew P Jones - Waiting On The Light To Change
TTITLE7=Backsliding - The Remedy
TTITLE8=Anyway - Stateliner
TTITLE9=Dinosaurs! - De Novo Dahl
TTITLE10=Tip Toe - Here Come The Mummies
EXTD=
EXTT0=
EXTT1=
EXTT2=
EXTT3=
EXTT4=
EXTT5=
EXTT6=
EXTT7=
EXTT8=
EXTT9=
EXTT10=
PLAYORDER=
